<svg width="416" height="442" viewBox="0 0 416 442" fill="none" xmlns="http://www.w3.org/2000/svg">
<path d="M41.6 312.528V147.841L0 126.647V338.325L208 441.634L416 338.325V126.627L374.4 147.819V312.528L208 395.2L41.6 312.528Z" fill="#4285F4"/>
<path d="M415.99 103.304L208 0L0 103.309V103.321L46.164 126.839L208 46.434L369.816 126.829L415.99 103.304Z" fill="#4285F4"/>
<path d="M103.761 179.564L62.3105 158.455V300.299L103.761 320.453V179.564Z" fill="#669DF6"/>
<path d="M312.066 179.564L353.516 158.455V300.299L312.066 320.453V179.564Z" fill="#669DF6"/>
<path d="M304.591 159.841L346.989 138.335L207.99 69.521L68.6426 138.335L111.039 159.841L207.815 111.978L304.591 159.841Z" fill="#AECBFA"/>
<path d="M124.627 176.131V213.569L207.99 256.03L291.121 213.569V176.478L207.815 135.159L124.627 176.131Z" fill="#AECBFA"/>
<path d="M124.827 284.654L207.815 325.672L291.121 284.496V237.035L207.815 279.268L124.827 237.743V284.654Z" fill="#669DF6"/>
</svg>
